PathFileType	4	(X/Y/Z)	C:\Users\Basilio\Documents\Thesis Gigler\squatting_fais\c3dfiles\076\SLS_front_pre3\markers_experimental.trc
DataRate	CameraRate	NumFrames	NumMarkers	Units	OrigDataRate	OrigDataStartFrame	OrigNumFrames
200.000000	200.000000	4	61	mm	200.000000	363	1453
Frame#	Time	FHD			LBHD			RBHD			C7			T10			CLAV			LSHO			LUUPA			LMUPA			LDUPA			LLEP			LMEP			LRAD			LUL			LRFIN			RSHO			RUPA1			RMUPA			RDUPA			RLEP			RMEP			RRAD			RUL			RUFIN			LASI			RASI			USACR			LSACR			RSACR			LTHI1			LTHI2			LTHI4			LLFC			LMFC			LTIB1			LTIB2			LTIB3			LTIB4			LLMAL			LMMAL			LHEE			LMT1			LMT2			LMT5			RTHI			RTHI2			RTHI3			RTHI4			RLFC			RMFC			RTIB1			RTIB2			RTIB3			RTIB4			RLMAL			RMMAL			RHEE			RMT1			RMT2			RMT5			LTHI3			
		X1	Y1	Z1	X2	Y2	Z2	X3	Y3	Z3	X4	Y4	Z4	X5	Y5	Z5	X6	Y6	Z6	X7	Y7	Z7	X8	Y8	Z8	X9	Y9	Z9	X10	Y10	Z10	X11	Y11	Z11	X12	Y12	Z12	X13	Y13	Z13	X14	Y14	Z14	X15	Y15	Z15	X16	Y16	Z16	X17	Y17	Z17	X18	Y18	Z18	X19	Y19	Z19	X20	Y20	Z20	X21	Y21	Z21	X22	Y22	Z22	X23	Y23	Z23	X24	Y24	Z24	X25	Y25	Z25	X26	Y26	Z26	X27	Y27	Z27	X28	Y28	Z28	X29	Y29	Z29	X30	Y30	Z30	X31	Y31	Z31	X32	Y32	Z32	X33	Y33	Z33	X34	Y34	Z34	X35	Y35	Z35	X36	Y36	Z36	X37	Y37	Z37	X38	Y38	Z38	X39	Y39	Z39	X40	Y40	Z40	X41	Y41	Z41	X42	Y42	Z42	X43	Y43	Z43	X44	Y44	Z44	X45	Y45	Z45	X46	Y46	Z46	X47	Y47	Z47	X48	Y48	Z48	X49	Y49	Z49	X50	Y50	Z50	X51	Y51	Z51	X52	Y52	Z52	X53	Y53	Z53	X54	Y54	Z54	X55	Y55	Z55	X56	Y56	Z56	X57	Y57	Z57	X58	Y58	Z58	X59	Y59	Z59	X60	Y60	Z60	X61	Y61	Z61	

364	1.815	-234.3355560302735	1635.285400390625	-961.9809570312502	-340.0494995117188	1568.926879882813	-1096.6962890625	-372.5112609863282	1573.4248046875	-948.169860839844	-409.7132568359376	1439.5908203125	-1014.800659179688	-414.3833923339845	1120.999389648438	-1019.527954101563	-270.7484130859376	1373.175903320313	-1010.282104492188	-331.1985168457032	1381.953979492188	-1194.201171875	-308.7106628417969	1176.628295898438	-1253.002807617188	-275.1708984375001	1154.294921875	-1224.299926757813	-300.1333312988282	1108.29296875	-1257.760498046875	-309.6526489257813	1051.915161132813	-1258.98828125	-348.4446716308594	1037.986450195313	-1188.489501953125	-189.6267700195313	840.0708007812502	-1204.543579101563	-222.7377471923829	823.6673583984377	-1258.681640625	-152.4938659667969	760.5529785156251	-1210.0732421875	-342.1258850097657	1372.028442382813	-839.509948730469	-356.7240600585938	1166.640014648438	-775.0227050781252	-311.0374450683594	1148.1513671875	-778.7698364257815	-344.8097534179688	1097.33447265625	-776.2556152343752	-323.9506225585938	1036.777954101563	-778.9855957031252	-337.9027099609376	1026.796875	-858.9729003906252	-206.6252746582032	821.8862304687502	-807.3165283203127	-258.5260925292969	811.487487792969	-766.7994384765626	-180.0279388427735	752.1222534179689	-778.7897949218752	-236.3666076660157	951.9424438476565	-1120.061889648438	-243.1032867431641	949.007751464844	-902.9356079101565	-410.875213623047	1010.826965332031	-1013.106079101563	-415.8701477050782	981.9944458007815	-1041.750610351563	-415.6768188476564	979.5415649414065	-985.6995849609377	-318.8863525390626	791.2002563476565	-1176.8876953125	-299.9721374511719	711.1853637695314	-1163.817504882813	-333.8108520507813	662.3040771484376	-1150.099243164063	-350.8573303222657	503.182342529297	-1113.828979492188	-317.5424499511719	503.5643920898439	-998.9189453125002	-320.9326782226563	363.1143493652344	-1036.197021484375	-343.9794616699219	306.8207702636719	-1099.777954101563	-315.0567016601563	311.3413696289063	-1062.845825195313	-327.6069335937501	236.7991943359376	-1026.179809570313	-383.4531250000001	106.8665084838867	-1069.88427734375	-356.6681518554688	122.9553375244141	-991.529724121094	-442.1608276367189	96.44458770751956	-1023.6240234375	-238.4824523925782	54.19686889648439	-1004.992065429688	-233.9473571777344	49.31639862060548	-1044.0908203125	-257.0280151367188	42.7524757385254	-1093.994873046875	-322.8339538574219	699.4268188476564	-819.4108886718752	-280.7397766113282	648.8533325195314	-803.0691528320315	-246.6169891357422	653.6532592773439	-804.888610839844	-296.8298339843751	567.7462768554689	-814.359313964844	-291.5249633789063	511.1538085937501	-810.961853027344	-242.8197479248047	493.9837341308595	-916.1777343750002	-264.4331665039063	372.3030700683594	-810.1789550781252	-349.2308044433594	307.6114501953126	-787.8046875000002	-303.5645446777344	296.4489746093751	-792.4864501953127	-295.0201416015626	245.6184844970704	-820.3233642578127	-378.3603820800782	119.191879272461	-784.1216430664065	-353.0696716308594	126.4706115722657	-866.3575439453127	-437.4263916015626	105.5704727172852	-823.1773071289065	-243.3751525878907	51.08496093750001	-850.2355957031252	-235.484848022461	51.63536834716798	-805.0916748046877	-263.2826232910157	38.32070922851563	-750.3518676757814	-253.5397949218751	711.7726440429689	-1153.739501953125	
365	1.82	-234.2859497070313	1635.38525390625	-962.1597900390627	-340.5732727050782	1568.9052734375	-1096.500122070313	-372.3981628417969	1573.4970703125	-947.974060058594	-409.690155029297	1439.642822265625	-1014.752685546875	-414.3216857910157	1121.056030273438	-1019.479919433594	-270.9030151367188	1373.261840820313	-1010.345031738281	-331.2548522949219	1381.94287109375	-1194.157592773438	-308.6510009765626	1176.718139648438	-1252.947387695313	-275.1539916992188	1154.448608398438	-1224.297241210938	-300.1365966796876	1108.404907226563	-1257.749755859375	-309.5726013183594	1052.053466796875	-1258.983276367188	-348.4225769042969	1038.030029296875	-1188.416625976563	-189.525131225586	840.2421875000002	-1204.588134765625	-222.5891571044922	823.7903442382815	-1258.685424804688	-152.4182434082032	760.6890869140626	-1210.078491210938	-342.0461120605469	1372.0908203125	-839.5219726562502	-356.4690246582032	1166.754760742188	-774.9924316406252	-310.7879638671876	1148.223388671875	-778.7670898437502	-344.5400390625001	1097.440673828125	-776.2177734375002	-323.6852416992188	1036.916625976563	-778.9652099609377	-338.0025329589844	1026.791381835938	-858.980407714844	-206.4470367431641	821.9458007812502	-807.4897460937502	-258.2098083496094	811.5823974609377	-766.7147827148439	-179.779296875	752.2293701171876	-779.0218505859377	-236.3082580566407	951.982604980469	-1120.027465820313	-242.9954986572266	949.1568603515627	-902.945007324219	-410.8396606445314	1010.931091308594	-1013.129089355469	-415.8299865722657	982.149108886719	-1041.755737304688	-415.6302185058595	979.707458496094	-985.6716918945315	-319.7243957519532	791.4738769531252	-1177.2919921875	-299.9005737304688	711.2286376953126	-1163.824462890625	-333.6284790039063	662.2049560546876	-1150.003784179688	-350.6293640136719	503.1829528808595	-1113.807983398438	-317.5802307128907	503.5425415039064	-998.8466796875002	-320.9331359863282	363.1016540527344	-1036.136474609375	-343.7548828125001	306.8170471191407	-1099.734008789063	-315.4492187500001	311.8643798828126	-1063.29345703125	-327.5536193847657	236.7744445800782	-1026.08203125	-383.5513610839844	106.9020538330078	-1069.908203125	-356.7368164062501	122.9610290527344	-991.4622192382815	-441.9049682617189	96.38214111328128	-1023.559814453125	-238.5086364746094	54.1118850708008	-1004.969665527344	-233.9461975097657	49.29992675781251	-1044.102783203125	-256.9790344238282	42.72297286987305	-1093.974853515625	-323.0251159667969	699.5620727539064	-819.376892089844	-281.0964660644532	648.8856201171876	-803.2351074218752	-246.8908691406251	653.6239013671876	-804.9685058593752	-297.2579040527344	567.9314575195314	-814.372009277344	-291.9871215820313	511.2581481933595	-811.028259277344	-242.7958679199219	493.8377075195314	-916.0505371093752	-264.7353515625001	372.2888183593751	-810.2351684570315	-349.4679260253907	307.6040344238282	-787.7654418945315	-303.7810058593751	296.4619445800782	-792.4851074218752	-295.1768798828126	245.6631011962891	-820.3166503906252	-378.4020996093751	119.1576156616211	-784.035583496094	-353.1552429199219	126.469955444336	-866.388610839844	-437.4528198242189	105.5250625610352	-823.1008300781252	-243.2948455810547	51.06665802001955	-850.177917480469	-235.5118255615235	51.60538864135744	-805.0439453125002	-263.2512207031251	38.29621124267579	-750.3077392578126	-253.3771667480469	711.7410888671876	-1153.587524414063	
366	1.825	-234.2626953125001	1635.5185546875	-962.386901855469	-340.8177185058594	1568.977294921875	-1096.39990234375	-372.2938232421876	1573.543090820313	-947.7473754882815	-409.7644958496095	1439.732666015625	-1014.680725097656	-414.325653076172	1121.146728515625	-1019.437683105469	-270.8633422851563	1373.300903320313	-1010.313598632813	-331.5264892578126	1382.078491210938	-1194.240478515625	-308.7186279296876	1176.779907226563	-1252.908935546875	-275.1259460449219	1154.618041992188	-1224.295288085938	-300.2628479003907	1108.591918945313	-1257.7783203125	-309.5851745605469	1052.13427734375	-1258.898681640625	-348.2830505371094	1038.143920898438	-1188.281494140625	-189.3165130615235	840.4752197265627	-1204.694213867188	-222.3153839111329	823.9263916015627	-1258.71142578125	-152.1892242431641	760.8267822265626	-1210.030517578125	-341.9507751464844	1372.134521484375	-839.5119628906252	-356.2019653320313	1166.850830078125	-774.9581298828127	-310.5544433593751	1148.311279296875	-778.8057250976565	-344.2897949218751	1097.508666992188	-776.1773071289065	-323.3501586914063	1037.063354492188	-778.9311523437502	-337.7687683105469	1026.807495117188	-859.0180664062502	-206.2904815673829	821.9826660156252	-807.6946411132815	-257.8403015136719	811.720642089844	-766.6417846679689	-179.5563049316407	752.3350219726564	-779.3121337890627	-236.2708129882813	951.9429321289065	-1120.026733398438	-242.9859924316407	949.2731933593752	-902.9840087890627	-410.8055114746095	1011.134094238281	-1013.145629882813	-415.7325744628907	982.240417480469	-1041.769775390625	-415.5678710937501	979.8474731445315	-985.669860839844	-318.7679443359376	791.061218261719	-1176.602783203125	-299.7518005371094	711.1827392578126	-1163.7978515625	-333.6509094238282	662.2188720703126	-1150.087036132813	-350.6392517089844	503.174041748047	-1113.812622070313	-317.5411987304688	503.5179443359376	-998.744323730469	-320.9283142089844	363.0621337890626	-1036.102172851563	-343.7092590332032	306.9228820800782	-1099.622924804688	-315.2791137695313	311.9071350097657	-1063.12548828125	-327.4974365234376	236.7699737548829	-1025.93896484375	-383.4505615234376	106.9457015991211	-1069.884033203125	-356.7225036621094	122.9397354125977	-991.4291992187502	-442.1708068847657	96.5042419433594	-1023.563720703125	-238.7380523681641	53.81412887573244	-1004.981018066406	-233.9540710449219	49.32155609130861	-1044.11279296875	-258.0978088378907	43.19783020019532	-1094.359741210938	-323.2037048339844	699.7347412109376	-819.3596801757815	-281.3479919433594	649.1411743164064	-803.1887207031252	-247.5391540527344	653.8552246093751	-804.252624511719	-297.6876220703126	568.0408935546876	-814.430358886719	-292.4374084472657	511.3445434570314	-811.124694824219	-243.3480072021485	493.863983154297	-916.1672363281252	-265.4325561523438	372.4061889648438	-810.5178833007815	-349.7786560058594	307.5694580078126	-787.7822265625002	-304.0409545898438	296.4675903320313	-792.501159667969	-295.6654052734376	245.8634185791016	-820.5144042968752	-378.4115600585938	119.1250839233399	-783.9752197265627	-353.2749633789063	126.4412536621094	-866.3137817382815	-437.4412841796876	105.5308532714844	-823.068054199219	-243.1103820800782	51.04370498657228	-850.0919189453127	-235.5204620361329	51.60519790649415	-804.9667968750002	-263.2486572265626	38.25421905517579	-750.2315673828126	-253.300033569336	711.7216186523439	-1153.6630859375	
367	1.83	-234.2240295410157	1635.605834960938	-962.6453857421877	-341.0617980957032	1569.217895507813	-1096.283447265625	-372.2197570800782	1573.618041992188	-947.560241699219	-409.7497558593751	1439.788452148438	-1014.605346679688	-414.321990966797	1121.22509765625	-1019.408264160156	-270.9100341796876	1373.348754882813	-1010.376525878906	-331.5331115722657	1382.147827148438	-1194.0634765625	-308.7959899902344	1176.924560546875	-1252.89697265625	-275.0372009277344	1154.750122070313	-1224.319946289063	-300.2944641113282	1108.739624023438	-1257.799926757813	-309.5614318847657	1052.242431640625	-1258.847778320313	-348.2145385742188	1038.25634765625	-1188.182495117188	-189.0294647216797	840.6282348632815	-1204.73583984375	-222.0055084228516	824.1565551757815	-1258.861694335938	-151.9507293701172	761.0109252929689	-1210.0068359375	-341.8787841796876	1372.163696289063	-839.5200805664065	-355.8570251464844	1166.9658203125	-774.9063110351565	-310.3352355957032	1148.392333984375	-778.8557128906252	-343.9278564453126	1097.638671875	-776.1101074218752	-322.8266296386719	1037.149536132813	-778.867126464844	-337.2952575683594	1027.08935546875	-858.830261230469	-206.0368804931641	822.0927734375002	-807.9568481445315	-257.4776916503907	811.8679199218752	-766.5370483398439	-179.2521667480469	752.4042358398439	-779.6060791015627	-236.2945861816407	951.9549560546877	-1120.031494140625	-242.9238586425782	949.3845825195315	-902.9654541015627	-410.6275024414064	1011.171936035156	-1013.216064453125	-415.6799926757814	982.315612792969	-1041.81005859375	-415.5213623046876	979.9722900390627	-985.691101074219	-318.7192687988282	791.0574951171877	-1176.552856445313	-299.5972595214844	711.1151733398439	-1163.707641601563	-333.4206848144532	662.1042480468751	-1150.014282226563	-350.4345397949219	503.1708984375001	-1113.81396484375	-317.4914245605469	503.5136108398439	-998.7434692382815	-320.8881835937501	363.0896606445313	-1036.004638671875	-343.4415893554688	306.6979370117188	-1099.568725585938	-315.1028442382813	311.7274475097657	-1063.03076171875	-327.4386901855469	236.7881774902344	-1025.802612304688	-383.6120300292969	106.9546508789063	-1069.882568359375	-356.7840881347657	122.9221115112305	-991.3731689453127	-441.8491210937501	96.40057373046878	-1023.521301269531	-238.7383880615235	53.81092834472658	-1004.986511230469	-233.9044952392579	49.36122512817384	-1044.071899414063	-257.0321655273438	42.76731491088868	-1093.961547851563	-323.4430847167969	699.8816528320314	-819.346862792969	-281.5936889648438	649.2940063476564	-803.2092285156252	-247.8679656982422	654.0202026367189	-804.2872314453127	-298.1312255859376	568.2204589843751	-814.4853515625002	-292.9314880371094	511.4193420410157	-811.1514282226565	-243.8169403076172	493.9635620117189	-916.1680297851565	-265.7867736816407	372.6019592285157	-810.604919433594	-350.0708618164063	307.5712890625001	-787.8023071289065	-304.3075561523438	296.5123291015626	-792.5079345703127	-295.6120605468751	245.7396697998047	-820.3641357421877	-378.4704589843751	119.0551300048828	-783.8708496093752	-353.2991027832032	126.3857879638672	-866.2629394531252	-437.4801635742189	105.4618453979492	-822.9756469726565	-243.3821716308594	51.08121871948244	-850.1060180664065	-235.4762115478516	51.5284881591797	-804.9705810546877	-263.2289428710938	38.17506790161134	-750.2059326171876	-253.1663055419922	711.8034057617189	-1153.425537109375	
